<svg aria-hidden="true" style="position: absolute; width: 0; height: 0; overflow: hidden;" version="1.1" xmlns="http://www.w3.org/2000/svg" xmlns:xlink="http://www.w3.org/1999/xlink">
<defs>
<symbol id="icon-facebook-icon" viewBox="0 0 19 32">
<path d="M17.236 18l0.913-5.791h-5.706v-3.758c0-1.584 0.797-3.129 3.353-3.129h2.594v-4.931c0 0-2.354-0.391-4.605-0.391-4.699 0-7.771 2.774-7.771 7.795v4.414h-5.224v5.791h5.224v14h6.429v-14h4.794z"></path>
</symbol>
<symbol id="icon-icon" viewBox="0 0 37 32">
<path d="M33.667 8.758c0.023 0.316 0.023 0.632 0.023 0.948 0 9.633-7.332 20.733-20.733 20.733-4.129 0-7.964-1.196-11.19-3.271 0.587 0.068 1.151 0.090 1.76 0.090 3.407 0 6.543-1.151 9.047-3.113-3.204-0.068-5.888-2.166-6.813-5.053 0.451 0.068 0.902 0.113 1.376 0.113 0.654 0 1.309-0.090 1.918-0.248-3.339-0.677-5.843-3.61-5.843-7.152v-0.090c0.97 0.541 2.098 0.88 3.294 0.925-1.963-1.309-3.249-3.542-3.249-6.069 0-1.354 0.361-2.594 0.993-3.677 3.587 4.422 8.979 7.31 15.025 7.625-0.113-0.541-0.18-1.105-0.18-1.669 0-4.016 3.249-7.287 7.287-7.287 2.098 0 3.993 0.88 5.324 2.301 1.647-0.316 3.226-0.925 4.625-1.76-0.541 1.692-1.692 3.113-3.204 4.016 1.466-0.158 2.888-0.564 4.196-1.128-0.993 1.444-2.233 2.73-3.655 3.768z"></path>
</symbol>
<symbol id="icon-instagram-icon" viewBox="0 0 34 32">
<path d="M17.596 24.204c-4.541 0-8.204-3.663-8.204-8.204s3.663-8.204 8.204-8.204c4.541 0 8.204 3.663 8.204 8.204s-3.663 8.204-8.204 8.204zM17.596 10.666c-2.935 0-5.334 2.392-5.334 5.334s2.392 5.334 5.334 5.334c2.942 0 5.334-2.392 5.334-5.334s-2.399-5.334-5.334-5.334zM28.050 24.54c0-1.064-0.857-1.914-1.914-1.914-1.064 0-1.914 0.857-1.914 1.914s0.857 1.914 1.914 1.914c1.057 0 1.914-0.857 1.914-1.914zM33.484 22.598c-0.121 2.564-0.707 4.834-2.585 6.705-1.871 1.871-4.141 2.456-6.705 2.585-2.642 0.15-10.561 0.15-13.203 0-2.556-0.121-4.827-0.707-6.705-2.578s-2.456-4.141-2.585-6.705c-0.15-2.642-0.15-10.561 0-13.203 0.121-2.563 0.707-4.834 2.585-6.705s4.141-2.456 6.705-2.585c2.642-0.15 10.561-0.15 13.203 0 2.563 0.121 4.834 0.707 6.705 2.585 1.871 1.871 2.456 4.141 2.585 6.705 0.15 2.642 0.15 10.554 0 13.196zM30.071 6.567c-0.557-1.4-1.635-2.478-3.042-3.042-2.106-0.835-7.105-0.643-9.432-0.643s-7.333-0.186-9.433 0.643c-1.4 0.557-2.478 1.635-3.042 3.042-0.835 2.106-0.643 7.105-0.643 9.433s-0.186 7.333 0.643 9.432c0.557 1.4 1.635 2.478 3.042 3.042 2.106 0.835 7.105 0.643 9.433 0.643s7.333 0.186 9.432-0.643c1.4-0.557 2.478-1.635 3.042-3.042 0.835-2.106 0.643-7.105 0.643-9.432s0.193-7.333-0.643-9.433z"></path>
</symbol>
<symbol id="icon-linkedinicon" viewBox="0 0 32 32">
<path d="M7.163 32h-6.634v-21.365h6.634v21.365zM3.842 7.721c-2.121 0-3.842-1.757-3.842-3.879 0-1.019 0.405-1.996 1.125-2.717s1.698-1.125 2.717-1.125c1.019 0 1.996 0.405 2.717 1.125s1.125 1.698 1.125 2.717c0 2.121-1.721 3.879-3.842 3.879zM31.993 32h-6.62v-10.4c0-2.479-0.050-5.657-3.449-5.657-3.449 0-3.978 2.693-3.978 5.479v10.579h-6.627v-21.365h6.363v2.914h0.093c0.886-1.679 3.049-3.45 6.277-3.45 6.714 0 7.949 4.422 7.949 10.165v11.736h-0.007z"></path>
</symbol>
<symbol id="icon-telegram-icon" viewBox="0 0 40 32">
<path d="M39.1 2.913l-5.795 27.155c-0.437 1.916-1.577 2.393-3.198 1.491l-8.829-6.465-4.26 4.072c-0.471 0.469-0.866 0.86-1.774 0.86l0.634-8.935 16.364-14.693c0.711-0.63-0.154-0.98-1.106-0.349l-20.23 12.658-8.709-2.709c-1.894-0.588-1.929-1.882 0.394-2.785l34.066-13.041c1.577-0.588 2.957 0.349 2.443 2.743z"></path>
</symbol>
</defs>
</svg>
